<svg xmlns="http://www.w3.org/2000/svg" width="70.72" height="69.35"><defs><style>.cls-1{fill:#b49fd3;fill-rule:evenodd}</style></defs><path id="Forma_1" data-name="Forma 1" class="cls-1" d="M1115.48 7994.13a1.516 1.516 0 1 0 1.38 1.51 1.441 1.441 0 0 0-1.38-1.51zm13.84 25.21c-1.57-6.14-8.41-15.78-7.56-32.67a1.562 1.562 0 0 0-.38-1.12 1.322 1.322 0 0 0-1-.47h-31.91a1.322 1.322 0 0 0-1 .47 1.608 1.608 0 0 0-.38 1.12c.85 16.81-5.97 26.55-7.57 32.66-2.88 11.01 1.83 25.23 8.42 34.53a1.336 1.336 0 0 0 1.09.59h30.79a1.368 1.368 0 0 0 1.1-.59c6.27-8.85 11.18-23.65 8.4-34.52zm-43.07-9.5a59.845 59.845 0 0 0 3.66-21.74h29.03a59.793 59.793 0 0 0 3.66 21.73c.11.31.22.61.34.92a40.419 40.419 0 0 1-37.03 0c.12-.3.23-.61.34-.91zm16.79 41.59h-13.33c-7.11-10.38-9.23-22.16-7.87-29.71 7.48 3.14 14.57 9.89 21.2 15.38v14.33zm-20.46-32.62c.47-1.41 1.05-2.72 1.7-4.18.16-.37.33-.74.49-1.13a42.96 42.96 0 0 0 39.31 0c.16.39.33.76.49 1.13a43.062 43.062 0 0 1 1.69 4.18c-7.89 3.24-15.33 10.25-21.83 15.65-6.53-5.42-13.95-12.41-21.85-15.65zm36.56 32.62h-13.33v-14.33c6.68-5.53 13.73-12.24 21.18-15.37 1.65 9.53-2.64 22.01-7.85 29.7zm-.29-44.04c-.6-2.01-1.11-4.06-1.5-6.06a1.4 1.4 0 0 0-1.65-1.16 1.507 1.507 0 0 0-1.05 1.79 64.356 64.356 0 0 0 1.58 6.37 1.355 1.355 0 0 0 1.74.96 1.531 1.531 0 0 0 .88-1.9zm19.56-10.24h-8.55l3.17-3.46a1.616 1.616 0 0 0 0-2.14 1.31 1.31 0 0 0-1.95 0l-5.53 6.04a1.6 1.6 0 0 0 0 2.13l5.53 6.03a1.3 1.3 0 0 0 1.95 0 1.6 1.6 0 0 0 0-2.13l-3.17-3.46h8.55a1.511 1.511 0 0 0 0-3.01zm-55.11.44l-5.53-6.04a1.31 1.31 0 0 0-1.95 0 1.616 1.616 0 0 0 0 2.14l3.17 3.46h-8.55a1.511 1.511 0 0 0 0 3.01h8.55l-3.17 3.46a1.6 1.6 0 0 0 0 2.13 1.3 1.3 0 0 0 1.95 0l5.53-6.03a1.6 1.6 0 0 0 0-2.13z" transform="translate(-1069.06 -7985.09)"/></svg>