<svg xmlns="http://www.w3.org/2000/svg" width="34" height="85"><defs><style>.cls-1{fill:#ff5ca1;fill-rule:evenodd;opacity:.56}</style></defs><path id="arrow" class="cls-1" d="M672.542 614.372C669.55 610.807 664.994 609 659 609s-10.55 1.81-13.542 5.375a15.623 15.623 0 0 0-3.458 9.97v25.311a15.622 15.622 0 0 0 3.458 9.971C648.45 663.19 653.006 665 659 665s10.55-1.808 13.542-5.374a15.622 15.622 0 0 0 3.458-9.973v-25.311a15.623 15.623 0 0 0-3.458-9.97zM659 628.507a2.273 2.273 0 0 1-2.252-2.289v-4.9a2.252 2.252 0 1 1 4.5 0v4.9a2.273 2.273 0 0 1-2.248 2.289zm15.222 21.146c0 2.261-.734 13.538-15.222 13.538s-15.222-11.277-15.222-13.538v-25.311c0-2.214.706-13.068 14.333-13.521v6.5a4.087 4.087 0 0 0-3.142 3.992v4.9a4.087 4.087 0 0 0 3.142 3.993v7.424a.889.889 0 1 0 1.778 0v-7.424a4.087 4.087 0 0 0 3.142-3.993v-4.9a4.087 4.087 0 0 0-3.142-3.992v-6.5c13.627.453 14.333 11.307 14.333 13.521v25.311zM654 674.162a1.151 1.151 0 0 0 .35.827l5.134 5.011 5.134-5.008a1.149 1.149 0 0 0 .006-1.647 1.2 1.2 0 0 0-1.677-.006l-3.463 3.379-3.463-3.379a1.2 1.2 0 0 0-1.677.006 1.151 1.151 0 0 0-.344.817zm0 7a1.15 1.15 0 0 0 .35.827l5.134 5.011 5.134-5.008a1.149 1.149 0 0 0 .006-1.647 1.2 1.2 0 0 0-1.677-.006l-3.463 3.378-3.463-3.378a1.2 1.2 0 0 0-1.677.006 1.152 1.152 0 0 0-.344.817zm0 7a1.153 1.153 0 0 0 .35.827l5.134 5.011 5.134-5.007a1.15 1.15 0 0 0 .006-1.648 1.2 1.2 0 0 0-1.677-.007l-3.463 3.38-3.463-3.38a1.2 1.2 0 0 0-1.677.007 1.153 1.153 0 0 0-.344.818z" transform="translate(-642 -609)"/></svg>