<svg xmlns="http://www.w3.org/2000/svg" width="79.91" height="62.81"><defs><style>.cls-1{fill:#b49fd3;fill-rule:evenodd}</style></defs><path id="Forma_1" data-name="Forma 1" class="cls-1" d="M1148.5 8276.94v1.31a11.987 11.987 0 0 1-23.97 0v-1.31h-27.96v2.62h25.36a14.67 14.67 0 0 0 29.17 0h25.37v-2.62h-27.97zm-2.69-39.02a1.3 1.3 0 0 0-.7-1.41 1.335 1.335 0 0 0-1.79.58c-.55 1.04-13.27 25.59-15.63 36.99a17.088 17.088 0 0 0-.5 4.02v.15a9.326 9.326 0 0 0 18.65 0 70.083 70.083 0 0 0-1.54-9.33c-2.24-10.99 1.48-30.8 1.51-31zm-9.29 46.88a6.6 6.6 0 0 1-6.66-6.55v-.17a14.526 14.526 0 0 1 .43-3.47c1.5-7.23 7.57-20.42 11.62-28.77-.87 6.95-1.62 16.73-.22 23.59a64.433 64.433 0 0 1 1.48 8.82 6.6 6.6 0 0 1-6.65 6.55zm-19.98-2.62a3.926 3.926 0 1 0 4 3.92 3.961 3.961 0 0 0-4-3.92zm0 5.23a1.305 1.305 0 1 1 1.33-1.31 1.319 1.319 0 0 1-1.33 1.31zm-11.98-2.61a5.236 5.236 0 1 0 5.32 5.23 5.282 5.282 0 0 0-5.32-5.23zm0 7.85a2.62 2.62 0 1 1 2.66-2.62 2.646 2.646 0 0 1-2.66 2.62zm63.92-7.85a5.236 5.236 0 1 0 5.32 5.23 5.276 5.276 0 0 0-5.32-5.23zm0 7.85a2.62 2.62 0 1 1 2.66-2.62 2.64 2.64 0 0 1-2.66 2.62zm-11.99-10.47a3.926 3.926 0 1 0 4 3.92 3.955 3.955 0 0 0-4-3.92zm0 5.23a1.305 1.305 0 1 1 1.33-1.31 1.319 1.319 0 0 1-1.33 1.31zm-31.96 3.93a3.926 3.926 0 1 0 4 3.93 3.963 3.963 0 0 0-4-3.93zm0 5.23a1.31 1.31 0 1 1 1.33-1.3 1.317 1.317 0 0 1-1.33 1.3zm23.97-5.23a3.926 3.926 0 1 0 4 3.93 3.957 3.957 0 0 0-4-3.93zm0 5.23a1.31 1.31 0 1 1 1.33-1.3 1.317 1.317 0 0 1-1.33 1.3z" transform="translate(-1096.56 -8236.38)"/></svg>