<svg xmlns="http://www.w3.org/2000/svg" width="114" height="114"><defs><style>.cls-1,.cls-2{fill:#714b9e;fill-opacity:0;stroke:#b49fd3;stroke-linejoin:round;stroke-width:1px}.cls-2{opacity:.25}.cls-3{fill:#ffcee1}.cls-4{fill:#ff5ca1;fill-rule:evenodd}</style></defs><circle id="Ellipse_1_copy_10" data-name="Ellipse 1 copy 10" class="cls-1" cx="57.002" cy="56.92" r="45.658"/><circle id="Ellipse_1_copy_10-2" data-name="Ellipse 1 copy 10" class="cls-2" cx="57" cy="57" r="54.5"/><circle id="Ellipse_1_copy_10-3" data-name="Ellipse 1 copy 10" class="cls-3" cx="56.999" cy="56.75" r="38.311"/><path id="icon" class="cls-4" d="M1016.12 5523.13a1.02 1.02 0 1 0 1.02 1.02 1.016 1.016 0 0 0-1.02-1.02zm10.18 17.08c-1.15-4.16-6.18-10.69-5.56-22.14a1.009 1.009 0 0 0-1.01-1.07h-23.461a.988.988 0 0 0-.737.32 1.016 1.016 0 0 0-.277.75c.621 11.4-4.39 17.99-5.562 22.13-2.12 7.46 1.338 17.1 6.184 23.4a1.018 1.018 0 0 0 .8.4h22.639a1.014 1.014 0 0 0 .8-.4c4.624-6 8.234-16.03 6.184-23.39zm-31.662-6.44a37.633 37.633 0 0 0 2.688-14.73h21.344a37.708 37.708 0 0 0 2.69 14.73c.08.2.17.41.25.62a31.993 31.993 0 0 1-27.223 0c.086-.21.17-.41.251-.62zm12.342 28.18h-9.8c-5.231-7.03-6.792-15.01-5.792-20.13 5.5 2.13 10.708 6.71 15.588 10.43v9.7zm-15.039-22.1a29.656 29.656 0 0 1 1.245-2.83c.12-.25.242-.5.366-.77a34.076 34.076 0 0 0 28.9.01c.12.25.24.51.36.76a26.234 26.234 0 0 1 1.24 2.83c-5.8 2.2-11.27 6.95-16.05 10.61-4.802-3.68-10.254-8.41-16.061-10.61zm26.869 22.1h-9.79v-9.7c4.91-3.75 10.09-8.3 15.57-10.42 1.21 6.46-1.94 14.91-5.78 20.12zm-.2-29.84a38.491 38.491 0 0 1-1.11-4.11 1.018 1.018 0 1 0-1.99.43 42.544 42.544 0 0 0 1.17 4.32 1.008 1.008 0 0 0 1.28.65 1.027 1.027 0 0 0 .65-1.29zm14.37-6.94h-6.28l2.33-2.34a1.026 1.026 0 0 0 0-1.45 1.014 1.014 0 0 0-1.44 0l-4.06 4.09a1.014 1.014 0 0 0 0 1.44l4.06 4.09a1.018 1.018 0 1 0 1.44-1.44l-2.33-2.34h6.28a1.025 1.025 0 0 0 0-2.05zm-40.512.3l-4.062-4.09a1.01 1.01 0 0 0-1.437 0 1.033 1.033 0 0 0 0 1.45l2.329 2.34h-6.283a1.025 1.025 0 0 0 0 2.05h6.285l-2.329 2.34a1.021 1.021 0 0 0 0 1.44 1.01 1.01 0 0 0 1.437 0l4.062-4.09a1.019 1.019 0 0 0-.002-1.44z" transform="translate(-950.5 -5481.5)"/></svg>