<svg xmlns="http://www.w3.org/2000/svg" width="56.313" height="58.91" viewBox="0 0 56.313 58.91">
  <defs>
    <style>
      .cls-1 {
        fill: #b49fd3;
        fill-rule: evenodd;
      }
    </style>
  </defs>
  <path class="cls-1" d="M988.782,8459.64a7.394,7.394,0,0,0,1.684-4.89,7.594,7.594,0,0,0-1.575-4.24,6.654,6.654,0,0,0-1.539-7.57c-1.926-1.79-5.2-2.59-9.729-2.37a36.724,36.724,0,0,0-5.96.78H971.65c-0.605.11-1.248,0.25-1.9,0.39-0.048-.78.085-2.74,1.515-7.15,1.7-5.25,1.6-9.26-.315-11.95a7.646,7.646,0,0,0-6.167-3.04,3.026,3.026,0,0,0-2.339,1.08c-1.345,1.59-1.187,4.52-1.017,5.88-1.6,4.36-6.083,15.05-9.875,18.02a1.44,1.44,0,0,0-.194.17,13.068,13.068,0,0,0-2.374,3.62,4.986,4.986,0,0,0-2.4-.62h-7.391a5.092,5.092,0,0,0-5.04,5.13v20.01a5.094,5.094,0,0,0,5.04,5.13h7.391a4.982,4.982,0,0,0,2.907-.94l2.848,0.34a120.258,120.258,0,0,0,16.15.9c1.442,0.11,2.8.17,4.059,0.17a27.125,27.125,0,0,0,5.634-.51c3.707-.8,6.239-2.4,7.524-4.76a7.638,7.638,0,0,0,.824-4.71,7.931,7.931,0,0,0,2.75-6.4A8.488,8.488,0,0,0,988.782,8459.64Zm-49.59,15.05a1.785,1.785,0,0,1-1.769-1.8v-20.03a1.784,1.784,0,0,1,1.769-1.79h7.391a1.783,1.783,0,0,1,1.769,1.79v20.02a1.786,1.786,0,0,1-1.769,1.8h-7.391v0.01Zm46.488-16.49a1.666,1.666,0,0,0-.218,2,5.286,5.286,0,0,1,.558,2.06,4.945,4.945,0,0,1-2.278,4.26,1.7,1.7,0,0,0-.557,1.9,4.419,4.419,0,0,1-.328,3.18c-0.811,1.48-2.617,2.53-5.355,3.13a31.634,31.634,0,0,1-8.832.27H968.5c-7.79.17-15.926-.42-16.011-0.43h-1.31a7.849,7.849,0,0,0,0-1.31v-20.94c0-.53.359-0.5,0.214-0.98a10.376,10.376,0,0,1,2.253-4.23c5.44-4.38,10.759-19.17,10.989-19.81a1.6,1.6,0,0,0,.073-0.83,7.817,7.817,0,0,1,.157-3.57,4.322,4.322,0,0,1,3.417,1.66c1.236,1.74,1.188,4.84-.145,8.96-2.036,6.26-2.2,9.57-.594,11.02a2.606,2.606,0,0,0,2.641.48c0.739-.17,1.442-0.32,2.109-0.43,0.048-.01.108-0.03,0.157-0.04,3.719-.82,10.383-1.33,12.7.81,1.963,1.83.57,4.24,0.412,4.5a1.662,1.662,0,0,0,.291,2.14,4.716,4.716,0,0,1,1.345,2.87A4.616,4.616,0,0,1,985.68,8458.2Z" transform="translate(-934.156 -8419.59)"/>
</svg>
