<svg xmlns="http://www.w3.org/2000/svg" width="150.191" height="61.47" viewBox="0 0 150.191 61.47">
  <defs>
    <style>
      .cls-1 {
        fill: #8d58b7;
        fill-rule: evenodd;
      }
    </style>
  </defs>
  <path id="arrow" class="cls-1" d="M984.48,2997.41l-1.518-4.77a150.834,150.834,0,0,1,50.7-4.83c26.07,1.95,61.61,13.27,89.1,49.84a1.162,1.162,0,0,1,.06,1.31,1.218,1.218,0,0,1-1.16.61l-13.13-4.28,21.01,10.36c-1.91-3.81-7.68-10.08-15.65-26.52l4.85,0.16c8.08,20.41,14.25,27.72,14.29,27.79a1.217,1.217,0,0,1-.16,1.34,1.236,1.236,0,0,1-1.3.39L1097.2,3034a1.227,1.227,0,0,1,.45-2.4l21.56,5.33c-25.7-35.09-60.64-44.77-85.65-46.67A113.693,113.693,0,0,0,984.48,2997.41Z" transform="translate(-982.969 -2987.41)"/>
</svg>
