<svg xmlns="http://www.w3.org/2000/svg" width="114" height="114"><defs><style>.cls-1,.cls-2{fill:#714b9e;fill-opacity:0;stroke:#b49fd3;stroke-linejoin:round;stroke-width:1px}.cls-2{opacity:.25}.cls-3{fill:#ffcee1}.cls-4{fill:#ff5ca1;fill-rule:evenodd}</style></defs><circle class="cls-1" cx="57" cy="56.92" r="45.66"/><circle id="Ellipse_1_copy_4" data-name="Ellipse 1 copy 4" class="cls-2" cx="57" cy="57" r="54.5"/><circle id="Ellipse_1_copy_3" data-name="Ellipse 1 copy 3" class="cls-3" cx="57" cy="56.75" r="38.31"/><path id="icon" class="cls-4" d="M1092.62 5107.13a.133.133 0 0 0-.05-.03c-4.57-3.32-5.56-11.04-5.57-11.15a1.264 1.264 0 1 0-2.51.3c.05.35 1.07 8.56 6.25 12.64a12.858 12.858 0 0 1-.97 2.07 7.727 7.727 0 0 0-.41.77.16.16 0 0 0-.03.08c-.26.71-.49 1.42-.73 2.12a23.924 23.924 0 0 1-8.82 13.15 22.144 22.144 0 0 1-3.81 1.99 29.979 29.979 0 0 0-3.78 1.93 18.553 18.553 0 0 0-1.89 1.41 7.319 7.319 0 0 1-3.73 2.03c-.23.02-.45.05-.67.07a9.863 9.863 0 0 0-4.52 1.18c-5.58 3.3-5.45 10.9-5.39 14.55a1.272 1.272 0 0 0 1.26 1.25h.02a1.281 1.281 0 0 0 1.24-1.28v-.02c-.11-5.1.33-10.11 4.11-12.33a7.526 7.526 0 0 1 3.46-.84c.24-.02.48-.05.71-.07a9.528 9.528 0 0 0 5.07-2.57 15.846 15.846 0 0 1 1.66-1.23 23.885 23.885 0 0 1 3.46-1.76 24.78 24.78 0 0 0 4.22-2.22 30.05 30.05 0 0 0 6.39-6.83 29.546 29.546 0 0 0 3.39-7.61c.22-.66.46-1.34.69-2.02.07-.11.18-.33.3-.54.9-1.63 2.13-3.85.65-5.04zm21.48 4.11a15.557 15.557 0 0 0-12.02-8.45h-.06c-.32-.03-.62-.03-.9-.03a3.344 3.344 0 0 1-1.43-.21.1.1 0 0 1-.03-.01c-1.01-.57-4.98-5.14-5.2-8.38a1.253 1.253 0 1 0-2.5.18c.26 4.2 4.7 9.4 6.45 10.41a5.242 5.242 0 0 0 2.68.55 5.389 5.389 0 0 1 .71.03 12.882 12.882 0 0 1 10.08 7.16 25.677 25.677 0 0 1 2.59 12.79c-.48 12.07-6.44 20.82-16.77 24.66-2.92 1.1-13.11 3.33-21.32-.93 0 0-.01 0-.01-.02a13.109 13.109 0 0 1-4.41-4l-.02-.03c-1.18-1.59-2.78-3.79-5.95-2.54-3.51 1.33-3.51 6.43-3.51 8.59a1.26 1.26 0 1 0 2.52 0c0-1.51 0-5.51 1.89-6.24h.01c1.25-.49 1.72-.09 3.03 1.68l.03.03.01.01a15.418 15.418 0 0 0 5.28 4.73 26.52 26.52 0 0 0 12.34 2.78c.65 0 1.3-.02 1.96-.05a33.148 33.148 0 0 0 9.04-1.69 26.936 26.936 0 0 0 13.36-10.34 31.57 31.57 0 0 0 5.03-16.59 28.46 28.46 0 0 0-2.88-14.09zm-3.78 12.05a3.3 3.3 0 0 0-2.29-2.04h-.04c-.68-.06-1.99.11-3.11 2.09a19.86 19.86 0 0 1-9.65 7.39c-4.69 1.83-9.45 2.15-14.49 2.47a13.068 13.068 0 0 0-4.25.82 6.8 6.8 0 0 0-4.39 4.77 6.921 6.921 0 0 0 1.79 6.25 12.286 12.286 0 0 0 4.85 2.96 23.707 23.707 0 0 0 8.13 1.42 25.856 25.856 0 0 0 6-.73 27.405 27.405 0 0 0 12.33-6.9 20.472 20.472 0 0 0 5.5-8.33 13.325 13.325 0 0 0-.38-10.17zm-2.02 9.34a.1.1 0 0 1-.01.03 17.945 17.945 0 0 1-4.85 7.3 24.971 24.971 0 0 1-11.18 6.28 21.838 21.838 0 0 1-12.66-.61 10.073 10.073 0 0 1-3.86-2.31 4.106 4.106 0 0 1 1.65-6.95c.02 0 .02 0 .03-.02a11.259 11.259 0 0 1 3.48-.64c4.99-.32 10.17-.65 15.21-2.63a21.745 21.745 0 0 0 10.88-8.4.158.158 0 0 0 .05-.08 2.365 2.365 0 0 1 .62-.79 1.907 1.907 0 0 1 .33.52.055.055 0 0 0 .03.05 10.728 10.728 0 0 1 .28 8.25z" transform="translate(-1028.5 -5070.5)"/></svg>