<svg id="icon1" xmlns="http://www.w3.org/2000/svg" width="101" height="100" viewBox="0 0 101 100">
  <defs>
    <style>
      .cls-1, .cls-2 {
        fill: #ff5ca1;
        fill-opacity: 0;
        stroke: #ff5ca1;
        stroke-linejoin: round;
        stroke-width: 1px;
      }

      .cls-1, .cls-2, .cls-4 {
        fill-rule: evenodd;
      }

      .cls-1 {
        opacity: 0.33;
      }

      .cls-3 {
        fill: #b49fd3;
      }

      .cls-4 {
        fill: #fff;
      }
    </style>
  </defs>
  <path id="Ellipse_1_copy_13" data-name="Ellipse 1 copy 13" class="cls-1" d="M1186.49,2134.98c26.24,0,47.51,21.05,47.51,47.01s-21.27,47.01-47.51,47.01-47.51-21.05-47.51-47.01S1160.25,2134.98,1186.49,2134.98Z" transform="translate(-1135.5 -2131.5)"/>
  <path id="Ellipse_1_copy_6" data-name="Ellipse 1 copy 6" class="cls-2" d="M1186.49,2142.02c22.37,0,40.51,17.9,40.51,39.99s-18.14,39.99-40.51,39.99-40.5-17.91-40.5-39.99S1164.12,2142.02,1186.49,2142.02Z" transform="translate(-1135.5 -2131.5)"/>
  <circle id="Ellipse_1_copy_3" data-name="Ellipse 1 copy 3" class="cls-3" cx="50.89" cy="50.735" r="31.39"/>
  <path id="icon" class="cls-4" d="M1193.57,2168.42a0.9,0.9,0,1,0,.89.89A0.894,0.894,0,0,0,1193.57,2168.42Zm8.97,14.92c-1.01-3.63-5.45-9.34-4.9-19.33a0.85,0.85,0,0,0-.24-0.66,0.9,0.9,0,0,0-.65-0.28h-20.71a0.9,0.9,0,0,0-.65.28,0.888,0.888,0,0,0-.24.66c0.55,9.95-3.87,15.71-4.91,19.32-1.87,6.52,1.18,14.93,5.46,20.43a0.9,0.9,0,0,0,.71.35h19.98a0.912,0.912,0,0,0,.7-0.34C1201.16,2198.53,1204.35,2189.77,1202.54,2183.34Zm-27.93-5.62a32.7,32.7,0,0,0,2.37-12.87h18.83a32.631,32.631,0,0,0,2.38,12.86c0.07,0.18.14,0.37,0.22,0.55a28.563,28.563,0,0,1-24.03,0C1174.46,2178.08,1174.53,2177.9,1174.61,2177.72Zm10.89,24.61h-8.65c-4.61-6.15-5.99-13.12-5.11-17.58,4.85,1.85,9.45,5.85,13.76,9.1v8.48Zm-13.28-19.31c0.31-.83.68-1.6,1.1-2.47,0.11-.21.22-0.44,0.33-0.66a30.331,30.331,0,0,0,25.5,0c0.1,0.22.21,0.44,0.32,0.66a25.951,25.951,0,0,1,1.09,2.47c-5.12,1.92-9.95,6.07-14.16,9.27C1182.16,2189.08,1177.35,2184.94,1172.22,2183.02Zm23.72,19.31h-8.65v-8.48c4.34-3.27,8.91-7.24,13.75-9.1C1202.1,2190.39,1199.32,2197.77,1195.94,2202.33Zm-0.18-26.06a34.2,34.2,0,0,1-.98-3.59,0.9,0.9,0,0,0-1.07-.68,0.885,0.885,0,0,0-.68,1.06,37.468,37.468,0,0,0,1.02,3.76A0.9,0.9,0,0,0,1195.76,2176.27Zm12.68-6.06h-5.54l2.05-2.05a0.891,0.891,0,1,0-1.26-1.26l-3.59,3.57a0.887,0.887,0,0,0,0,1.26l3.59,3.57a0.891,0.891,0,1,0,1.26-1.26l-2.05-2.05h5.54A0.89,0.89,0,1,0,1208.44,2170.21Zm-35.75.26-3.58-3.57a0.9,0.9,0,0,0-1.27,0,0.887,0.887,0,0,0,0,1.26l2.05,2.05h-5.54a0.89,0.89,0,1,0,0,1.78h5.54l-2.05,2.05a0.887,0.887,0,0,0,0,1.26,0.9,0.9,0,0,0,1.27,0l3.58-3.57A0.887,0.887,0,0,0,1172.69,2170.47Z" transform="translate(-1135.5 -2131.5)"/>
</svg>
