<svg xmlns="http://www.w3.org/2000/svg" width="70.72" height="69.35" viewBox="0 0 70.72 69.35">
  <defs>
    <style>
      .cls-1 {
        fill: #b49fd3;
        fill-rule: evenodd;
      }
    </style>
  </defs>
  <path id="Forma_1" data-name="Forma 1" class="cls-1" d="M1115.48,7994.13a1.516,1.516,0,1,0,1.38,1.51A1.441,1.441,0,0,0,1115.48,7994.13Zm13.84,25.21c-1.57-6.14-8.41-15.78-7.56-32.67a1.562,1.562,0,0,0-.38-1.12,1.322,1.322,0,0,0-1-.47h-31.91a1.322,1.322,0,0,0-1,.47,1.608,1.608,0,0,0-.38,1.12c0.85,16.81-5.97,26.55-7.57,32.66-2.88,11.01,1.83,25.23,8.42,34.53a1.336,1.336,0,0,0,1.09.59h30.79a1.368,1.368,0,0,0,1.1-.59C1127.19,8045.01,1132.1,8030.21,1129.32,8019.34Zm-43.07-9.5a59.845,59.845,0,0,0,3.66-21.74h29.03a59.793,59.793,0,0,0,3.66,21.73c0.11,0.31.22,0.61,0.34,0.92a40.419,40.419,0,0,1-37.03,0C1086.03,8010.45,1086.14,8010.14,1086.25,8009.84Zm16.79,41.59h-13.33c-7.11-10.38-9.23-22.16-7.87-29.71,7.48,3.14,14.57,9.89,21.2,15.38v14.33Zm-20.46-32.62c0.47-1.41,1.05-2.72,1.7-4.18,0.16-.37.33-0.74,0.49-1.13a42.96,42.96,0,0,0,39.31,0c0.16,0.39.33,0.76,0.49,1.13a43.062,43.062,0,0,1,1.69,4.18c-7.89,3.24-15.33,10.25-21.83,15.65C1097.9,8029.04,1090.48,8022.05,1082.58,8018.81Zm36.56,32.62h-13.33V8037.1c6.68-5.53,13.73-12.24,21.18-15.37C1128.64,8031.26,1124.35,8043.74,1119.14,8051.43Zm-0.29-44.04c-0.6-2.01-1.11-4.06-1.5-6.06a1.4,1.4,0,0,0-1.65-1.16,1.507,1.507,0,0,0-1.05,1.79,64.356,64.356,0,0,0,1.58,6.37,1.355,1.355,0,0,0,1.74.96A1.531,1.531,0,0,0,1118.85,8007.39Zm19.56-10.24h-8.55l3.17-3.46a1.616,1.616,0,0,0,0-2.14,1.31,1.31,0,0,0-1.95,0l-5.53,6.04a1.6,1.6,0,0,0,0,2.13l5.53,6.03a1.3,1.3,0,0,0,1.95,0,1.6,1.6,0,0,0,0-2.13l-3.17-3.46h8.55A1.511,1.511,0,0,0,1138.41,7997.15Zm-55.11.44-5.53-6.04a1.31,1.31,0,0,0-1.95,0,1.616,1.616,0,0,0,0,2.14l3.17,3.46h-8.55a1.511,1.511,0,0,0,0,3.01h8.55l-3.17,3.46a1.6,1.6,0,0,0,0,2.13,1.3,1.3,0,0,0,1.95,0l5.53-6.03A1.6,1.6,0,0,0,1083.3,7997.59Z" transform="translate(-1069.06 -7985.09)"/>
</svg>
