<svg xmlns="http://www.w3.org/2000/svg" width="114" height="114"><defs><style>.cls-1,.cls-2{fill:#714b9e;fill-opacity:0;stroke:#b49fd3;stroke-linejoin:round;stroke-width:1px}.cls-2{opacity:.25}.cls-3{fill:#ffcee1}.cls-4{fill:#ff5ca1;fill-rule:evenodd}</style></defs><circle id="Ellipse_1_copy_7" data-name="Ellipse 1 copy 7" class="cls-1" cx="57" cy="56.92" r="45.66"/><circle id="Ellipse_1_copy_7-2" data-name="Ellipse 1 copy 7" class="cls-2" cx="57" cy="57" r="54.5"/><circle id="Ellipse_1_copy_7-3" data-name="Ellipse 1 copy 7" class="cls-3" cx="57" cy="56.75" r="38.31"/><path id="icon" class="cls-4" d="M1197.32 5304.07c-.01 0-.01-.01-.02-.01l-15.39-19.65a1.056 1.056 0 0 0-.84-.41 1.077 1.077 0 0 0-.84.4l-15.46 19.55-.06.09a21 21 0 1 0 32.61.03zm-16.32 31.82a18.813 18.813 0 0 1-18.87-18.71 18.608 18.608 0 0 1 4.32-11.91c.03-.04.06-.09.09-.14l14.53-18.36 14.52 18.54c.01.02.03.04.04.06a18.673 18.673 0 0 1-14.63 30.52zm16.79-22.36v-.01a1.044 1.044 0 0 0-.7-.74 13.93 13.93 0 0 0-4.94-.48 16.338 16.338 0 0 0-14.4 12.36l-5.4-5.35a1.081 1.081 0 0 0-1.51 0 1.068 1.068 0 0 0 0 1.5l6.32 6.25a1.138 1.138 0 0 0 .25.18 13.419 13.419 0 0 0 .5 4.51 1.079 1.079 0 0 0 .68.67 13.568 13.568 0 0 0 3.85.51q.51 0 1.08-.03a15.617 15.617 0 0 0 10.02-4.66 14.97 14.97 0 0 0 4.25-14.71zm-5.75 13.22a13.46 13.46 0 0 1-8.58 4.04 15.028 15.028 0 0 1-2.36-.03l10.58-10.47a1.056 1.056 0 0 0 0-1.49 1.081 1.081 0 0 0-1.51 0l-10.58 10.46a12.6 12.6 0 0 1-.03-2.33 13.149 13.149 0 0 1 4.08-8.49 13.4 13.4 0 0 1 8.57-4.03 6.358 6.358 0 1 1-.17 12.34zm-13.24-10.77a15.156 15.156 0 0 0-13.89-3.2 1.044 1.044 0 0 0-.7.74v.01a14.97 14.97 0 0 0 4.25 14.71 16.4 16.4 0 0 0 4.64 3.27 1.049 1.049 0 0 0 .45.1 1.053 1.053 0 0 0 .46-2.01 14.147 14.147 0 0 1-4.05-2.85 12.9 12.9 0 0 1-3.83-12.11 13.266 13.266 0 0 1 11.29 2.94 1.062 1.062 0 0 0 1.5-.12 1.039 1.039 0 0 0-.12-1.48zm10.65-14.07l-6.12-7.82a1.086 1.086 0 0 0-1.5-.19 1.053 1.053 0 0 0-.19 1.48l6.13 7.82a1.056 1.056 0 0 0 .84.41 1.055 1.055 0 0 0 .84-1.7zm2.11 2.69l-.03-.03a1.065 1.065 0 0 0-1.49-.19 1.045 1.045 0 0 0-.19 1.48l.03.04a1.056 1.056 0 0 0 .84.41 1.1 1.1 0 0 0 .66-.23 1.042 1.042 0 0 0 .18-1.48z" transform="translate(-1123.5 -5253.5)"/></svg>