<svg id="icon3" xmlns="http://www.w3.org/2000/svg" width="101" height="100" viewBox="0 0 101 100">
  <defs>
    <style>
      .cls-1, .cls-2 {
        fill: #ff5ca1;
        fill-opacity: 0;
        stroke: #ff5ca1;
        stroke-linejoin: round;
        stroke-width: 1px;
      }

      .cls-1, .cls-2, .cls-4 {
        fill-rule: evenodd;
      }

      .cls-1 {
        opacity: 0.33;
      }

      .cls-3 {
        fill: #b49fd3;
      }

      .cls-4 {
        fill: #fff;
      }
    </style>
  </defs>
  <path id="Ellipse_1_copy_4" data-name="Ellipse 1 copy 4" class="cls-1" d="M1186.49,2375.98c26.24,0,47.51,21.05,47.51,47.01s-21.27,47.01-47.51,47.01-47.51-21.05-47.51-47.01S1160.25,2375.98,1186.49,2375.98Z" transform="translate(-1135.5 -2372.5)"/>
  <path id="Ellipse_1_copy_11" data-name="Ellipse 1 copy 11" class="cls-2" d="M1186.49,2383.02c22.37,0,40.51,17.9,40.51,39.99s-18.14,39.99-40.51,39.99-40.5-17.91-40.5-39.99S1164.12,2383.02,1186.49,2383.02Z" transform="translate(-1135.5 -2372.5)"/>
  <circle id="Ellipse_1_copy_2" data-name="Ellipse 1 copy 2" class="cls-3" cx="51.11" cy="50.25" r="31.39"/>
  <path id="icon" class="cls-4" d="M1200.81,2416.28c0-.01-0.01-0.01-0.01-0.02l-12.83-16.25a0.945,0.945,0,0,0-.7-0.34h0a0.882,0.882,0,0,0-.7.34l-12.89,16.17c-0.02.02-.04,0.05-0.06,0.07a17.1,17.1,0,0,0-3.92,10.87,17.512,17.512,0,0,0,35.02,0A17.064,17.064,0,0,0,1200.81,2416.28Zm-13.6,26.31a15.615,15.615,0,0,1-15.73-15.47,15.331,15.331,0,0,1,3.59-9.85,0.763,0.763,0,0,0,.08-0.11l12.11-15.2,12.11,15.34a0.176,0.176,0,0,0,.04.05,15.4,15.4,0,0,1,3.53,9.77A15.622,15.622,0,0,1,1187.21,2442.59Zm14-18.49-0.01-.01a0.868,0.868,0,0,0-.58-0.61,11.561,11.561,0,0,0-4.11-.4,13.078,13.078,0,0,0-8.36,3.85,12.9,12.9,0,0,0-3.65,6.38l-4.5-4.42a0.906,0.906,0,0,0-1.26,0,0.852,0.852,0,0,0,0,1.23l5.26,5.17a1.366,1.366,0,0,0,.21.15,11.077,11.077,0,0,0,.42,3.73,0.915,0.915,0,0,0,.56.56,11.454,11.454,0,0,0,3.22.42c0.28,0,.59-0.01.9-0.03a13.12,13.12,0,0,0,8.36-3.85A12.331,12.331,0,0,0,1201.21,2424.1Zm-4.8,10.94a11.207,11.207,0,0,1-7.15,3.33,10.565,10.565,0,0,1-1.97-.02l8.82-8.66a0.852,0.852,0,0,0,0-1.23,0.906,0.906,0,0,0-1.26,0l-8.82,8.66a11.152,11.152,0,0,1-.02-1.94,10.815,10.815,0,0,1,3.4-7.01,11.174,11.174,0,0,1,7.15-3.34,10.857,10.857,0,0,1,3.05.19A10.653,10.653,0,0,1,1196.41,2435.04Zm-11.04-8.92a12.729,12.729,0,0,0-11.58-2.64,0.868,0.868,0,0,0-.58.61v0.01a12.307,12.307,0,0,0,3.54,12.17,13.839,13.839,0,0,0,3.87,2.71,1,1,0,0,0,.38.08,0.9,0.9,0,0,0,.8-0.5,0.862,0.862,0,0,0-.42-1.16,12.1,12.1,0,0,1-3.37-2.36,10.6,10.6,0,0,1-3.2-10.02,11.118,11.118,0,0,1,9.41,2.43,0.908,0.908,0,0,0,1.26-.1A0.865,0.865,0,0,0,1185.37,2426.12Zm8.89-11.63-5.11-6.47a0.9,0.9,0,0,0-1.25-.15,0.856,0.856,0,0,0-.16,1.22l5.11,6.47a0.91,0.91,0,0,0,.7.34,0.875,0.875,0,0,0,.55-0.19A0.856,0.856,0,0,0,1194.26,2414.49Zm1.76,2.23-0.03-.03a0.91,0.91,0,0,0-1.25-.16,0.867,0.867,0,0,0-.15,1.23l0.02,0.03a0.91,0.91,0,0,0,.7.34,0.939,0.939,0,0,0,.55-0.19A0.856,0.856,0,0,0,1196.02,2416.72Z" transform="translate(-1135.5 -2372.5)"/>
</svg>
