<svg id="icon2" xmlns="http://www.w3.org/2000/svg" width="101" height="100"><defs><style>.cls-1,.cls-2{fill:#ff5ca1;fill-opacity:0;stroke:#ff5ca1;stroke-linejoin:round;stroke-width:1px}.cls-1,.cls-2,.cls-3,.cls-4{fill-rule:evenodd}.cls-1{opacity:.33}.cls-3{fill:#b49fd3}.cls-4{fill:#fff}</style></defs><path id="Ellipse_1_copy_12" data-name="Ellipse 1 copy 12" class="cls-1" d="M1186.49 2255.98c26.24 0 47.51 21.05 47.51 47.01s-21.27 47.01-47.51 47.01-47.51-21.05-47.51-47.01 21.27-47.01 47.51-47.01z" transform="translate(-1135.5 -2252.5)"/><path id="Ellipse_1_copy_5" data-name="Ellipse 1 copy 5" class="cls-2" d="M1186.49 2263.02c22.37 0 40.51 17.9 40.51 39.99s-18.14 39.99-40.51 39.99-40.5-17.91-40.5-39.99 18.13-39.99 40.5-39.99z" transform="translate(-1135.5 -2252.5)"/><path id="Ellipse_1_copy" data-name="Ellipse 1 copy" class="cls-3" d="M1186.4 2271.62a31.245 31.245 0 1 1-31.4 31.25 31.317 31.317 0 0 1 31.4-31.25z" transform="translate(-1135.5 -2252.5)"/><path id="icon" class="cls-4" d="M1203.42 2285.2h-3.27l-.47-1.56a.627.627 0 0 0-.6-.65h-4.23a.628.628 0 0 0-.61.65v1.93h-13.28v-1.93a.627.627 0 0 0-.6-.65h-4.23a.627.627 0 0 0-.6.65l-.47 1.56h-3.27a1.6 1.6 0 0 0-1.09 1.01v34.77a.624.624 0 0 0 .6.64h32.61a.624.624 0 0 0 .6-.64v-34.77a1.62 1.62 0 0 0-1.09-1.01zm-7.97-.92h3.02v3.86h-3.02v-3.86zm-18.71 0h3.01v3.86h-3.01v-3.86zm-4.95 3.13h3.27l.47 1.38a.624.624 0 0 0 .6.64h4.23a.624.624 0 0 0 .6-.64l.64-1.38h12l.64 1.38a.626.626 0 0 0 .61.64h4.23a.624.624 0 0 0 .6-.64l.47-1.38h3.27v4.41h-31.63v-4.41zm1.09 32.01v-25.39h29.45v25.39h-29.45zm19.55-21.62h-16.3v18.67h22.95v-18.67h-6.65zm-4.22 1.29h4.22v4.5h-4.22v-4.5zm4.22 10.3h-4.22v-4.51h4.22v4.51zm-9.66-4.51h4.23v4.51h-4.23v-4.51zm0-5.79h4.23v4.5h-4.23v-4.5zm-5.43 0h4.23v4.5h-4.23v-4.5zm0 5.79h4.23v4.51h-4.23v-4.51zm4.23 10.3h-4.23v-4.5h4.23v4.5zm5.43 0h-4.23v-4.5h4.23v4.5zm5.43 0h-4.22v-4.5h4.22v4.5zm5.44 0h-4.23v-4.5h4.23v4.5zm0-5.79h-4.23v-4.51h4.23v4.51zm0-10.3v4.5h-4.23v-4.5h4.23z" transform="translate(-1135.5 -2252.5)"/></svg>